# File created by Blade
# Date/Time:  Tue Sep 28 14:35:47 2010
#---------------------------------------------------------
:version 1.10
:name HOM
:units
  mass 1.0
  length 1.000000
  angle deg
:documentation
     Acclaim Skeleton File
:root
   axis xyz
   order TX TY TZ RX RY RZ
   position 0.000000 0.000000 0.000000
   orientation 0 0 0
:bonedata
   begin
      id 1
      name LeftUpLeg_dum
      direction 1.000000 0.000000 0.000000
      length 3.677894
      axis 0.0 0.0 0.0 xyz
   end
   begin
      id 2
      name RightUpLeg_dum
      direction -1.000000 0.000000 0.000000
      length 3.677894
      axis 0.0 0.0 0.0 xyz
   end
   begin
      id 3
      name Spine_dum
      direction 0.000000 1.000000 0.000000
      length 0.039370
      axis 0.0 0.0 0.0 xyz
   end
   begin
      id 4
      name LeftUpLeg
      direction 0.000000 -1.000000 0.000000
      length 18.389491
      axis 0.0 0.0 0.0 xyz
      dof rx ry rz
   end
   begin
      id 5
      name LeftLeg
      direction 0.000000 -1.000000 0.000000
      length 16.918313
      axis 0.0 0.0 0.0 xyz
      dof rx ry rz
   end
   begin
      id 6
      name LeftFoot
      direction 0.000000 -0.258819 0.965926
      length 6.436326
      axis 15.0 0.0 0.0 xyz
      dof rx ry rz
   end
   begin
      id 7
      name LeftToeBase
      direction 0.000000 0.000000 1.000000
      length 2.952750
      axis 0.0 0.0 0.0 xyz
      dof rx ry rz
   end
   begin
      id 8
      name RightUpLeg
      direction 0.000000 -1.000000 0.000000
      length 18.389491
      axis 0.0 0.0 0.0 xyz
      dof rx ry rz
   end
   begin
      id 9
      name RightLeg
      direction 0.000000 -1.000000 0.000000
      length 16.918313
      axis 0.0 0.0 0.0 xyz
      dof rx ry rz
   end
   begin
      id 10
      name RightFoot
      direction 0.000000 -0.258819 0.965926
      length 6.436326
      axis 15.0 0.0 0.0 xyz
      dof rx ry rz
   end
   begin
      id 11
      name RightToeBase
      direction 0.000000 0.000000 1.000000
      length 2.952750
      axis 0.0 0.0 0.0 xyz
      dof rx ry rz
   end
   begin
      id 12
      name Spine
      direction 0.000000 1.000000 0.000000
      length 9.194745
      axis 0.0 0.0 0.0 xyz
      dof rx ry rz
   end
   begin
      id 13
      name Spine1
      direction 0.000000 1.000000 0.000000
      length 0.000000
      axis 0.0 0.0 0.0 xyz
      dof rx ry rz
   end
   begin
      id 14
      name Spine1_dum1
      direction 0.000000 1.000000 0.000000
      length 9.194745
      axis 0.0 0.0 0.0 xyz
   end
   begin
      id 15
      name Spine1_dum2
      direction 0.000000 1.000000 0.000000
      length 9.194745
      axis 0.0 0.0 0.0 xyz
   end
   begin
      id 16
      name Spine1_dum3
      direction 0.000000 1.000000 0.000000
      length 9.194745
      axis 0.0 0.0 0.0 xyz
   end
   begin
      id 17
      name Neck
      direction 0.000000 1.000000 0.000000
      length 4.229598
      axis 0.0 0.0 0.0 xyz
      dof rx ry rz
   end
   begin
      id 18
      name Head
      direction 0.000000 1.000000 0.000000
      length 4.527550
      axis 0.0 0.0 0.0 xyz
      dof rx ry rz
   end
   begin
      id 19
      name LeftShoulder
      direction 1.000000 -0.000004 0.000000
      length 5.516839
      axis 0.0 0.0 -90.0 xyz
      dof rx ry rz
   end
   begin
      id 20
      name LeftArm
      direction 1.000000 -0.000004 0.000000
      length 11.033679
      axis 0.0 0.0 -90.0 xyz
      dof rx ry rz
   end
   begin
      id 21
      name LeftForeArm
      direction 1.000000 -0.000004 0.000000
      length 10.114232
      axis 0.0 0.0 -90.0 xyz
      dof rx ry rz
   end
   begin
      id 22
      name LeftHand
      direction 0.000000 0.000000 0.000000
      length 0.000000
      axis 0.0 0.0 -90.0 xyz
      dof rx ry rz
   end
   begin
      id 23
      name LeftHand_dum1
      direction 0.000000 0.000000 0.000000
      length 0.000000
      axis 0.0 0.0 -90.0 xyz
   end
   begin
      id 24
      name LeftHand_dum2
      direction 1.000000 -0.000004 0.000000
      length 3.937000
      axis 0.0 0.0 -90.0 xyz
   end
   begin
      id 25
      name LeftHandThumb
      direction 0.000000 0.000000 1.000000
      length 3.937000
      axis 0.0 0.0 -90.0 xyz
      dof rx ry rz
   end
   begin
      id 26
      name RightShoulder
      direction -1.000000 -0.000004 0.000000
      length 5.516839
      axis 0.0 0.0 90.0 xyz
      dof rx ry rz
   end
   begin
      id 27
      name RightArm
      direction -1.000000 -0.000004 0.000000
      length 11.033679
      axis 0.0 0.0 90.0 xyz
      dof rx ry rz
   end
   begin
      id 28
      name RightForeArm
      direction -1.000000 -0.000004 0.000000
      length 10.114232
      axis 0.0 0.0 90.0 xyz
      dof rx ry rz
   end
   begin
      id 29
      name RightHand
      direction 0.000000 0.000000 0.000000
      length 0.000000
      axis 0.0 0.0 90.0 xyz
      dof rx ry rz
   end
   begin
      id 30
      name RightHand_dum1
      direction 0.000000 0.000000 0.000000
      length 0.000000
      axis 0.0 0.0 90.0 xyz
   end
   begin
      id 31
      name RightHand_dum2
      direction -1.000000 -0.000004 0.000000
      length 5.393690
      axis 0.0 0.0 90.0 xyz
   end
   begin
      id 32
      name RightHandThumb
      direction 0.000000 0.000000 1.000000
      length 3.937000
      axis 0.0 0.0 90.0 xyz
      dof rx ry rz
   end
:hierarchy
   begin
      root LeftUpLeg_dum RightUpLeg_dum Spine_dum
      LeftUpLeg_dum LeftUpLeg
      RightUpLeg_dum RightUpLeg
      Spine_dum Spine
      LeftUpLeg LeftLeg
      LeftLeg LeftFoot
      LeftFoot LeftToeBase
      RightUpLeg RightLeg
      RightLeg RightFoot
      RightFoot RightToeBase
      Spine Spine1
      Spine1 Spine1_dum1 Spine1_dum2 Spine1_dum3
      Spine1_dum1 Neck
      Spine1_dum2 LeftShoulder
      Spine1_dum3 RightShoulder
      Neck Head
      LeftShoulder LeftArm
      LeftArm LeftForeArm
      LeftForeArm LeftHand
      LeftHand LeftHand_dum1 LeftHand_dum2
      LeftHand_dum1 LeftHandThumb
      RightShoulder RightArm
      RightArm RightForeArm
      RightForeArm RightHand
      RightHand RightHand_dum1 RightHand_dum2
      RightHand_dum1 RightHandThumb
   end

# File created by Blade
# Date/Time:  Tue Sep 28 14:35:42 2010
# Frame Rate: 200.000 fps
#------------------------------------------------------
:FULLY-SPECIFIED
:DEGREES
482
root  -0.999949 37.256122 -25.962843 7.129797 -1.762404 -2.278813
LeftUpLeg  -31.499234 11.195992 1.309753
LeftLeg  29.623051 -0.000000 0.000000
LeftFoot  4.271174 13.739147 9.759511
LeftToeBase  -11.753954 0.000000 -0.000000
RightUpLeg  -4.164228 -26.910644 5.005115
RightLeg  15.985848 -0.000000 0.000000
RightFoot  -7.381542 8.784159 -18.147962
RightToeBase  -10.606770 0.000000 -0.000000
Spine  -14.016396 0.051389 2.123876
Spine1  15.604689 0.105987 1.502673
Neck  8.959255 1.596292 -4.988285
Head  -10.943488 1.928297 2.086596
LeftShoulder  -7.165148 -9.999632 -28.114293
LeftArm  0.100618 36.946707 -36.827686
LeftForeArm  33.674483 -0.000000 0.000000
LeftHand  5.071723 -8.679975 0.780844
LeftHandThumb  0.000000 -0.000000 0.000000
RightShoulder  2.902836 8.119560 22.691096
RightArm  -0.092997 -46.897989 41.534230
RightForeArm  43.332870 -0.000000 0.000000
RightHand  8.700221 9.492726 -1.494901
RightHandThumb  0.000000 -0.000000 0.000000
483
root  -0.987001 37.233777 -25.778954 7.225824 -1.794399 -2.157509
LeftUpLeg  -31.495975 11.098513 1.113635
LeftLeg  28.179805 -0.000000 0.000000
LeftFoot  3.888289 13.519257 9.489642
LeftToeBase  -11.759758 0.000000 -0.000000
RightUpLeg  -3.999163 -26.767978 4.789271
RightLeg  16.063077 -0.000000 0.000000
RightFoot  -7.555855 8.536698 -18.126316
RightToeBase  -10.700902 0.000000 -0.000000
Spine  -14.050948 0.046249 2.014718
Spine1  15.632428 0.139399 1.479234
Neck  8.913276 1.589349 -5.012705
Head  -10.961596 1.927425 2.084067
LeftShoulder  -7.154042 -10.119062 -28.089562
LeftArm  0.105842 36.802192 -36.766514
LeftForeArm  34.193590 -0.000000 0.000000
LeftHand  5.157443 -9.057713 0.932342
LeftHandThumb  0.000000 -0.000000 0.000000
RightShoulder  2.931916 8.105936 22.759044
RightArm  -0.071383 -47.180669 41.437968
RightForeArm  43.118308 -0.000000 0.000000
RightHand  8.659372 9.524333 -1.495037
RightHandThumb  0.000000 -0.000000 0.000000
484
root  -0.974219 37.206638 -25.618934 7.272069 -1.818049 -2.120654
LeftUpLeg  -31.629405 11.077585 0.983921
LeftLeg  27.077174 -0.000000 0.000000
LeftFoot  3.454886 13.278752 9.141814
LeftToeBase  -11.328318 0.000000 -0.000000
RightUpLeg  -3.874829 -26.513412 4.658138
RightLeg  16.253025 -0.000000 0.000000
RightFoot  -7.687478 8.208470 -18.055659
RightToeBase  -10.899747 0.000000 -0.000000
Spine  -13.968497 0.052271 1.965311
Spine1  15.713462 0.161535 1.478478
Neck  8.764716 1.631393 -5.044856
Head  -11.076613 1.877203 2.106607
LeftShoulder  -7.133928 -10.170793 -28.051086
LeftArm  0.280568 36.399202 -36.660571
LeftForeArm  34.687665 -0.000000 0.000000
LeftHand  5.290129 -8.983142 0.888715
LeftHandThumb  0.000000 -0.000000 0.000000
RightShoulder  2.998164 8.190804 22.804868
RightArm  -0.091857 -47.364730 41.409087
RightForeArm  42.928843 -0.000000 0.000000
RightHand  8.715214 9.397705 -1.533470
RightHandThumb  0.000000 -0.000000 0.000000
485
root  -0.959525 37.179614 -25.414628 7.384554 -1.839393 -2.053360
LeftUpLeg  -31.538180 11.147043 0.768163
LeftLeg  25.508489 -0.000000 0.000000
LeftFoot  2.969277 12.912534 9.197314
LeftToeBase  -11.103100 0.000000 -0.000000
RightUpLeg  -3.698323 -26.287517 4.481015
RightLeg  16.363867 -0.000000 0.000000
RightFoot  -7.941873 7.900632 -17.995901
RightToeBase  -10.613675 0.000000 -0.000000
Spine  -14.004229 0.052155 1.896319
Spine1  15.569896 0.188770 1.476109
Neck  8.744322 1.647442 -5.100560
Head  -10.776607 1.832173 2.167976
LeftShoulder  -7.207340 -9.992400 -28.006092
LeftArm  0.417478 36.010625 -36.576397
LeftForeArm  35.280926 -0.000000 0.000000
LeftHand  4.954935 -9.047526 0.902774
LeftHandThumb  0.000000 -0.000000 0.000000
RightShoulder  2.961170 7.922836 22.824288
RightArm  0.003742 -47.439009 41.282795
RightForeArm  42.748859 -0.000000 0.000000
RightHand  8.566785 9.269680 -1.488966
RightHandThumb  0.000000 -0.000000 0.000000
486
root  -0.941672 37.158257 -25.232780 7.496771 -1.877947 -1.938883
LeftUpLeg  -31.445441 10.654011 0.738093
LeftLeg  23.957807 -0.000000 0.000000
LeftFoot  2.747909 12.879818 8.667742
LeftToeBase  -11.524047 0.000000 -0.000000
RightUpLeg  -3.524190 -26.143702 4.276554
RightLeg  16.343717 -0.000000 0.000000
RightFoot  -8.017350 7.684410 -17.942504
RightToeBase  -10.892638 0.000000 -0.000000
Spine  -14.031612 0.034801 1.803521
Spine1  15.539376 0.205825 1.460050
Neck  8.841364 1.639280 -5.189473
Head  -10.966575 1.864492 2.163978
LeftShoulder  -7.162534 -10.200139 -27.978045
LeftArm  0.385141 36.000780 -36.577691
LeftForeArm  35.599508 -0.000000 0.000000
LeftHand  5.395592 -9.025839 0.897863
LeftHandThumb  0.000000 -0.000000 0.000000
RightShoulder  2.989808 7.954054 22.887463
RightArm  -0.016266 -47.796715 41.217423
RightForeArm  42.506557 -0.000000 0.000000
RightHand  8.460441 9.250175 -1.653581
RightHandThumb  0.000000 -0.000000 0.000000
